HIERARCHY
ROOT hip
{
  OFFSET 0 0 0
  CHANNELS 6 Xposition Yposition Zposition Zrotation Yrotation Xrotation
  JOINT abdomen
  {
    OFFSET 0 20.6881 -0.73152
    CHANNELS 3 Zrotation Xrotation Yrotation
    JOINT chest
    {
      OFFSET 0 11.7043 -0.48768
      CHANNELS 3 Zrotation Xrotation Yrotation
      JOINT neck
      {
        OFFSET 0 22.1894 -2.19456
        CHANNELS 3 Zrotation Xrotation Yrotation
        JOINT head
        {
          OFFSET -0.24384 7.07133 1.2192
          CHANNELS 3 Zrotation Xrotation Yrotation
          JOINT leftEye
          {
            OFFSET 4.14528 8.04674 8.04672
            CHANNELS 3 Zrotation Xrotation Yrotation
            End Site
            {
              OFFSET 1 0 0
            }
          }
          JOINT rightEye
          {
            OFFSET -3.6576 8.04674 8.04672
            CHANNELS 3 Zrotation Xrotation Yrotation
            End Site
            {
              OFFSET 1 0 0
            }
          }
        }
      }
      JOINT rCollar
      {
        OFFSET -2.68224 19.2634 -4.8768
        CHANNELS 3 Zrotation Xrotation Yrotation
        JOINT rShldr
        {
          OFFSET -8.77824 -1.95073 1.46304
          CHANNELS 3 Zrotation Xrotation Yrotation
          JOINT rForeArm
          {
            OFFSET -28.1742 -1.7115 0.48768
            CHANNELS 3 Zrotation Xrotation Yrotation
            JOINT rHand
            {
              OFFSET -22.5879 0.773209 7.07136
              CHANNELS 3 Zrotation Xrotation Yrotation
              JOINT rThumb1
              {
                OFFSET -1.2192 -0.487915 3.41376
                CHANNELS 3 Zrotation Xrotation Yrotation
                JOINT rThumb2
                {
                  OFFSET -3.37035 -0.52449 3.41376
                  CHANNELS 3 Zrotation Xrotation Yrotation
                  End Site
                  {
                    OFFSET -1.78271 -1.18214 1.43049
                  }
                }
              }
              JOINT rIndex1
              {
                OFFSET -7.75947 0.938293 5.60832
                CHANNELS 3 Zrotation Xrotation Yrotation
                JOINT rIndex2
                {
                  OFFSET -2.54057 -0.884171 1.56538
                  CHANNELS 3 Zrotation Xrotation Yrotation
                  End Site
                  {
                    OFFSET -1.62519 -0.234802 1.16502
                  }
                }
              }
              JOINT rMid1
              {
                OFFSET -8.24714 1.18213 3.41376
                CHANNELS 3 Zrotation Xrotation Yrotation
                JOINT rMid2
                {
                  OFFSET -3.10165 -0.590103 1.0647
                  CHANNELS 3 Zrotation Xrotation Yrotation
                  End Site
                  {
                    OFFSET -2.48547 -0.328903 0.83742
                  }
                }
              }
              JOINT rRing1
              {
                OFFSET -8.82822 0.546677 1.51678
                CHANNELS 3 Zrotation Xrotation Yrotation
                JOINT rRing2
                {
                  OFFSET -2.60934 -0.819778 -0.0198488
                  CHANNELS 3 Zrotation Xrotation Yrotation
                  End Site
                  {
                    OFFSET -2.33842 -0.294052 0.168128
                  }
                }
              }
              JOINT rPinky1
              {
                OFFSET -8.27202 -0.0477905 -0.4584
                CHANNELS 3 Zrotation Xrotation Yrotation
                JOINT rPinky2
                {
                  OFFSET -1.82734 -0.647385 -0.700984
                  CHANNELS 3 Zrotation Xrotation Yrotation
                  End Site
                  {
                    OFFSET -1.69225 -0.51767 -0.607171
                  }
                }
              }
            }
          }
        }
      }
      JOINT lCollar
      {
        OFFSET 2.68224 19.2634 -4.8768
        CHANNELS 3 Zrotation Xrotation Yrotation
        JOINT lShldr
        {
          OFFSET 8.77824 -1.95073 1.46304
          CHANNELS 3 Zrotation Xrotation Yrotation
          JOINT lForeArm
          {
            OFFSET 28.1742 -1.7115 0.48768
            CHANNELS 3 Zrotation Xrotation Yrotation
            JOINT lHand
            {
              OFFSET 22.5879 0.773209 7.07136
              CHANNELS 3 Zrotation Xrotation Yrotation
              JOINT lThumb1
              {
                OFFSET 1.2192 -0.487915 3.41376
                CHANNELS 3 Zrotation Xrotation Yrotation
                JOINT lThumb2
                {
                  OFFSET 3.37035 -0.52449 3.41376
                  CHANNELS 3 Zrotation Xrotation Yrotation
                  End Site
                  {
                    OFFSET 1.78271 -1.18214 1.43049
                  }
                }
              }
              JOINT lIndex1
              {
                OFFSET 7.75947 0.938293 5.60832
                CHANNELS 3 Zrotation Xrotation Yrotation
                JOINT lIndex2
                {
                  OFFSET 2.54057 -0.884171 1.56538
                  CHANNELS 3 Zrotation Xrotation Yrotation
                  End Site
                  {
                    OFFSET 1.62519 -0.234802 1.16502
                  }
                }
              }
              JOINT lMid1
              {
                OFFSET 8.24714 1.18213 3.41376
                CHANNELS 3 Zrotation Xrotation Yrotation
                JOINT lMid2
                {
                  OFFSET 3.10165 -0.590103 1.0647
                  CHANNELS 3 Zrotation Xrotation Yrotation
                  End Site
                  {
                    OFFSET 2.48547 -0.328903 0.83742
                  }
                }
              }
              JOINT lRing1
              {
                OFFSET 8.82822 0.546677 1.51678
                CHANNELS 3 Zrotation Xrotation Yrotation
                JOINT lRing2
                {
                  OFFSET 2.60934 -0.819778 -0.0198488
                  CHANNELS 3 Zrotation Xrotation Yrotation
                  End Site
                  {
                    OFFSET 2.33842 -0.294052 0.168128
                  }
                }
              }
              JOINT lPinky1
              {
                OFFSET 8.27202 -0.0477905 -0.4584
                CHANNELS 3 Zrotation Xrotation Yrotation
                JOINT lPinky2
                {
                  OFFSET 1.82734 -0.647385 -0.700984
                  CHANNELS 3 Zrotation Xrotation Yrotation
                  End Site
                  {
                    OFFSET 1.69225 -0.51767 -0.607171
                  }
                }
              }
            }
          }
        }
      }
    }
  }
  JOINT rButtock
  {
    OFFSET -8.77824 4.35084 1.2192
    CHANNELS 3 Zrotation Xrotation Yrotation
    JOINT rThigh
    {
      OFFSET 0 -1.70687 -2.19456
      CHANNELS 3 Zrotation Xrotation Yrotation
      JOINT rShin
      {
        OFFSET 0 -36.8199 0.73152
        CHANNELS 3 Zrotation Xrotation Yrotation
        JOINT rFoot
        {
          OFFSET 0.73152 -45.1104 -5.12064
          CHANNELS 3 Zrotation Xrotation Yrotation
          End Site
          {
            OFFSET -1.1221 -3.69964 12.103
          }
        }
      }
    }
  }
  JOINT lButtock
  {
    OFFSET 8.77824 4.35084 1.2192
    CHANNELS 3 Zrotation Xrotation Yrotation
    JOINT lThigh
    {
      OFFSET 0 -1.70687 -2.19456
      CHANNELS 3 Zrotation Xrotation Yrotation
      JOINT lShin
      {
        OFFSET 0 -36.8199 0.73152
        CHANNELS 3 Zrotation Xrotation Yrotation
        JOINT lFoot
        {
          OFFSET -0.73152 -45.1104 -5.12064
          CHANNELS 3 Zrotation Xrotation Yrotation
          End Site
          {
            OFFSET 1.1221 -3.69964 12.103
          }
        }
      }
    }
  }
}
MOTION
Frames:	8
Frame Time:	0.03333
0.0 0.0 0.0 0.0 0.0 0.0 0.0 0.0 0.0 0.0 0.0 0.0 0.0 0.0 0.0 0.0 0.0 0.0 0.0 0.0 0.0 0.0 0.0 0.0 0.0 0.0 0.0 0.0 0.0 0.0 0.0 0.0 0.0 0.0 0.0 0.0 0.0 0.0 0.0 0.0 0.0 0.0 0.0 0.0 0.0 0.0 0.0 0.0 0.0 0.0 0.0 0.0 0.0 0.0 0.0 0.0 0.0 0.0 0.0 0.0 0.0 0.0 0.0 0.0 0.0 0.0 0.0 0.0 0.0 0.0 0.0 0.0 0.0 0.0 0.0 0.0 0.0 0.0 0.0 0.0 0.0 0.0 0.0 0.0 0.0 0.0 0.0 0.0 0.0 0.0 0.0 0.0 0.0 0.0 0.0 0.0 0.0 0.0 0.0 0.0 0.0 0.0 0.0 0.0 0.0 0.0 0.0 0.0 0.0 0.0 0.0 0.0 0.0 0.0 0.0 0.0 0.0 0.0 0.0 0.0 0.0 0.0 0.0 0.0 0.0 0.0 0.0 0.0 0.0 0.0 0.0 0.0
-0.2977 51.4053 1.6265 -171.718433 58.96867 -171.687866 -2.781757 9.055307 -162.843417 2.064901 7.679464 -178.964762 3.168353 32.570409 166.301631 -20.817792 38.746223 -132.382628 0.003535 0.0 0.002203 -0.002878 0.0 -0.002524 -9.651879 34.836081 11.199672 -130.133497 -32.52806 141.563068 -0.51408 -11.388466 -144.462307 -143.646911 28.816786 129.092618 -89.135257 38.427569 50.299868 -142.204187 -25.797833 79.9673 -142.951589 -2.189708 117.456258 -169.397208 -28.219302 118.475853 -160.672486 -6.667786 143.245835 -151.619684 24.811992 136.779312 -145.099863 -1.520984 -178.649912 -71.170131 -78.003589 -92.80533 4.594178 13.36043 4.15451 -147.404325 11.039134 -143.50929 152.689002 11.67716 -158.229201 39.718464 4.639976 12.661275 107.148915 21.209239 131.98457 -9.797491 -13.423381 -6.434748 174.19248 -11.857796 -89.869775 116.13329 15.104405 -53.610384 39.687841 37.281259 -30.590342 21.453655 33.194779 -11.744699 161.090564 -7.962939 -143.436395 -179.419771 -49.499671 -140.648765 0.013158 -1.322892 0.417608 154.812102 5.436851 -171.136263 -0.46649 1.226335 -0.428064 43.027253 -50.956236 43.22327 0.0 -0.002015 0.000443 -28.587864 -36.519404 137.518907 106.681588 -65.2079 -147.584851 97.081656 33.04211 7.434332 -179.992568 75.748888 -0.005085 -145.540309 6.388409 -3.592377 8.378758 70.872142 15.117798 115.491128 -41.067303 -20.727389
-0.4214 51.629999999999995 2.6582000000000003 -172.303852 58.250782 -172.261037 -5.891594 10.285471 123.667625 -8.994242 2.459931 -105.052472 -12.316771 23.166699 -75.375625 38.29749 13.245912 97.940842 -0.000841 -0.0 0.002372 -0.001555 0.0 -0.003073 -0.16561 0.979175 0.218762 63.103324 32.836886 5.954636 -10.277558 2.739814 110.508408 -15.491797 -61.423804 -18.375615 -94.791565 37.829994 54.284249 -145.033761 -25.526466 78.836133 0.184255 -0.300335 -0.105377 17.864739 -8.923715 -1.355263 -10.976382 25.78977 7.640199 3.185834 0.421699 0.052134 8.5e-05 -0.060737 -0.019831 10.327186 0.11278 -0.048825 -7.143787 -15.707729 -6.726964 38.637691 81.560187 -1.59654 136.303135 48.980323 -140.374652 169.089733 59.13463 -124.094086 -109.157179 -0.083459 -2.596334 176.072689 39.697336 -149.283182 170.567269 -8.250435 -89.949642 116.163461 13.202832 -53.428993 152.104994 -18.556146 -121.368943 56.194384 56.760773 -40.785417 8.303961 20.653113 -5.559536 -3.165132 0.418661 -0.042486 -0.00388 1.689278 -0.531019 155.981597 -8.251122 -172.846297 156.380249 53.733906 150.120022 -15.29645 41.770334 -6.265566 -0.0 -0.000703 -0.00065 -26.401184 -37.682279 -180.0 -107.169683 -59.068675 175.654957 83.894756 74.136866 176.812792 -179.993816 75.749801 -0.00638 -145.949841 5.470841 -106.876758 -81.812221 -9.623947 -127.686312 -71.201283 -31.061086 175.04278
-0.5069 51.94760000000001 3.8518999999999997 -172.685835 57.354067 -172.680184 -4.144722 14.278116 -0.0 0.742808 -12.474085 18.200985 -12.290516 22.276181 -70.659077 38.707516 10.083031 93.324662 -0.000281 -0.0 0.002576 0.004708 -0.0 -0.003573 -0.164892 0.979248 0.218638 65.667313 10.021551 4.620546 71.116009 46.675992 61.293985 -25.220286 2.338016 4.335136 -68.482895 37.952511 35.660043 160.920362 -54.348506 70.046465 24.076198 -42.306364 -5.558149 21.026365 -8.183543 -3.443508 1.279901 -3.803393 -0.679178 -163.222939 -4.56817 143.330716 -73.163557 -72.143388 -90.197702 14.726941 0.476611 -4.532609 5.051563 14.842227 4.556479 -159.848238 55.516076 -150.003381 151.9727 14.763984 -157.370985 -144.873035 12.285283 175.596182 15.2668 -14.19339 -82.530904 3.012837 25.086841 -2.346393 178.92741 -16.45381 -89.420875 -125.08996 -63.032994 -93.439856 162.636504 -37.465363 -122.649971 153.254044 -3.028282 -118.756514 12.844124 28.996467 -9.151958 163.629998 -6.195404 -143.471042 -0.000892 -0.018612 0.004892 -9.757165 7.249088 -0.884695 150.576648 31.032552 146.367513 24.443368 -39.100301 25.474967 -179.996571 75.750555 -0.003537 157.861094 33.228804 -103.336534 -91.573971 -20.76922 90.860246 -33.423301 -7.302414 -18.385087 -179.996571 75.750555 -0.003537 -149.693442 6.264375 100.57432 73.938454 -8.673893 169.729387 131.958427 -23.205077 -123.699617
-0.5578 52.371500000000005 5.2012 -172.859257 56.283628 -172.951309 -3.106166 10.156861 -150.053796 4.51933 6.48091 167.82002 -12.333519 25.472541 -88.927127 38.530424 20.680976 107.473208 -0.001279 -0.0 0.002007 -0.001428 -0.0 0.000411 -155.614226 -4.236228 161.991517 -49.922753 13.665746 4.587338 104.49669 -33.725737 -111.533184 -33.806648 21.180973 14.090597 90.437129 -50.93979 38.665268 -15.777855 -43.958614 -30.374975 -145.338081 -6.264713 118.677541 -167.497407 -25.602891 118.924826 -154.144065 11.634966 139.429055 3.221994 0.189937 0.373251 0.003942 1.770303 0.557169 10.165977 0.296748 -0.03147 -43.361051 -47.548446 -42.160157 -79.215816 -54.02405 -79.708508 142.974503 39.431868 -147.39048 -141.079709 -8.519697 -162.445207 -178.754026 17.716925 -57.777629 -159.109384 -31.847893 -141.006828 78.031095 38.689607 -42.41221 -168.685143 -49.548741 -73.411544 -159.643261 -69.973708 -102.397975 13.125821 39.260136 -8.745307 160.61838 -6.498837 -143.2196 -143.615913 -74.418878 -111.815558 0.02037 -1.643689 0.516954 4.168915 -81.418112 25.129692 62.364329 -51.462272 60.962762 77.131109 -53.983785 77.738304 -0.0 0.000538 0.000489 -21.436204 -36.853306 -33.20986 -125.302977 68.969772 -18.6258 -67.969704 79.260887 179.024378 179.990928 75.748013 0.008004 -150.109924 8.47177 -0.0 0.637994 72.642401 -121.258565 146.169192 14.954965 -130.954726
-0.5781 52.9026 6.6875 -172.868533 55.021289 -173.098004 -5.969167 14.402358 39.465337 -5.922202 -10.145914 -21.392623 -11.399917 28.318863 -106.275227 35.827222 30.28279 121.175127 -0.001311 0.0 -0.002224 -0.000643 -0.0 0.003242 -130.360348 54.595859 134.22575 62.083558 -37.830259 91.073965 176.133147 24.959406 45.583295 -138.195779 35.867008 122.039328 -68.48193 37.954321 35.659733 -135.175346 -27.099606 85.435513 37.217675 -57.917172 -0.640709 15.079091 2.402048 -3.702692 89.035063 -81.393436 59.7597 2.472246 1.610407 0.396159 -145.12125 0.310602 -179.22469 2.693412 -43.639398 -17.839327 -80.939172 -51.226454 -79.359721 60.11023 84.132822 -21.294989 13.372453 41.838148 -15.176474 132.301076 2.568125 -121.404574 122.976776 50.838948 136.026458 -0.62932 11.289932 -2.147593 166.745491 -4.418456 -89.779384 38.047042 -23.516984 -8.556635 90.224696 41.072358 -75.797095 -7.997436 -3.30129 5.624708 -23.903207 -61.333936 -1.399432 -91.947798 -78.467834 -63.129422 -0.005347 1.770327 -0.556978 15.747882 69.586012 -28.513094 140.024226 -2.440337 137.137415 -1.612386 -2.433324 2.718567 179.992432 75.749533 0.007808 161.584162 33.474658 -180.0 -171.927573 -83.712267 90.989508 175.807373 62.747115 97.093811 179.981807 75.750007 0.012448 -150.5852 8.400903 -89.579343 -61.86101 10.652397 105.907464 25.221356 5.42625 -28.95115
-0.5778 53.520100000000006 8.2867 -172.782405 53.494034 -173.1577 -2.094602 13.492545 -74.790045 9.185055 -4.780388 93.561729 5.629289 16.477955 55.424642 -23.785232 -19.088148 -39.196673 0.000215 -0.0 -0.000568 0.000215 -0.0 -0.000568 -159.220988 -48.380873 170.491804 4.069421 45.227654 -46.693104 -64.969482 10.313297 -171.127502 -169.718177 -50.614341 162.338782 93.028478 -51.083499 40.500867 -161.815889 -27.841013 126.468576 -162.91873 -37.929581 122.628969 -164.592807 -26.291489 118.859528 -151.476428 17.84169 137.538813 11.613998 -24.885248 -1.162258 -0.00048 0.063652 0.020424 -55.604964 -86.721855 -77.117198 4.593772 13.360285 4.156268 -115.040537 -42.750986 -113.664112 157.643658 -66.710603 -175.897603 -94.656451 50.536109 85.656227 5.518327 -5.157895 -90.848772 5.9407 31.219364 -2.31887 103.19967 36.331053 -60.111249 179.955301 -37.794338 -76.528921 -5.921705 -10.174613 2.967367 97.741204 44.539558 -77.844487 -5.892648 -18.35207 2.5434 163.595123 -5.547846 -143.419674 145.120018 0.267085 179.213811 145.780567 -49.244138 168.098075 144.259998 9.23786 141.009446 25.655013 -40.250938 27.040374 179.998742 75.748664 0.000861 164.064248 34.498081 158.347486 97.783164 -58.001705 -141.545191 94.77732 16.616012 6.56445 0.001584 -0.000724 0.000792 49.791002 -53.340649 -22.21108 -62.274535 32.567011 -176.358182 9.456561 51.360886 -89.50893
-0.5662999999999999 54.1794 9.973600000000001 -172.638461 51.584803 -173.14291 -4.392486 15.525312 1.001202 -0.25722 -11.601887 18.102373 8.799437 24.112376 102.000245 -37.810197 7.947536 -81.210588 0.000848 0.0 0.0008 0.000848 0.0 0.0008 -33.841335 -85.665503 -55.258599 -0.15533 -12.202967 -53.113999 75.670738 -44.026764 -77.321705 -91.547386 51.620665 73.907519 -7.758207 7.439218 1.682169 57.31538 -68.789054 -5.664266 -44.140237 38.976163 34.491587 94.998228 -63.426345 46.0834 -86.294778 60.960804 77.857518 -162.81364 -3.97851 143.077144 -0.000755 0.063804 0.019445 9.707707 -62.549703 -9.180105 -156.707377 54.951277 -150.25921 7.613863 17.12359 2.659362 -3.284021 -26.942079 5.275614 18.633697 85.825883 -82.650675 83.26411 -81.419625 -5.000316 5.736278 30.43294 -2.23705 89.136027 38.42793 -50.299291 141.409462 -25.404233 -79.886085 -12.216415 -21.784771 5.119704 11.007997 29.657699 -10.100838 153.320375 13.628738 -138.861943 42.426516 58.290363 -36.599528 70.380168 -72.129056 87.280679 71.790778 83.242613 -89.581009 -39.98272 85.641613 0.894716 148.98375 13.276954 143.011317 -0.00281 -0.001074 -0.001405 -12.295272 -36.805554 -7.63619 -174.113132 85.088022 76.919492 38.698427 25.126004 62.155156 -179.982653 75.750716 -0.014273 -155.221418 12.331558 -5.119477 20.631607 63.816923 135.686166 -147.322415 25.139046 134.936438
